<?xml version="1.0" standalone="no"?><!DOCTYPE svg PUBLIC "-//W3C//DTD SVG 1.1//EN" "http://www.w3.org/Graphics/SVG/1.1/DTD/svg11.dtd"><svg t="1534684965975" class="icon" style="" viewBox="0 0 1024 1024" version="1.1" xmlns="http://www.w3.org/2000/svg" p-id="1104" xmlns:xlink="http://www.w3.org/1999/xlink" width="200" height="200"><defs><style type="text/css"></style></defs><path d="M256 384C256 348.653776 227.346224 320 192 320 156.653776 320 128 348.653776 128 384 128 419.346224 156.653776 448 192 448 227.346224 448 256 419.346224 256 384ZM576 384C576 348.653776 547.346224 320 512 320 476.653776 320 448 348.653776 448 384 448 419.346224 476.653776 448 512 448 547.346224 448 576 419.346224 576 384ZM896 384C896 348.653776 867.346221 320 832 320 796.653779 320 768 348.653776 768 384 768 419.346224 796.653779 448 832 448 867.346221 448 896 419.346224 896 384ZM256 640C256 604.653776 227.346224 576 192 576 156.653776 576 128 604.653776 128 640 128 675.346221 156.653776 704 192 704 227.346224 704 256 675.346221 256 640ZM576 640C576 604.653776 547.346224 576 512 576 476.653776 576 448 604.653776 448 640 448 675.346221 476.653776 704 512 704 547.346224 704 576 675.346221 576 640ZM896 640C896 604.653776 867.346221 576 832 576 796.653779 576 768 604.653776 768 640 768 675.346221 796.653779 704 832 704 867.346221 704 896 675.346221 896 640Z" p-id="1105" fill="#8a8a8a"></path></svg>